<mxfile host="app.diagrams.net" agent="Mozilla/5.0 (Windows NT 10.0; Win64; x64) AppleWebKit/537.36 (KHTML, like Gecko) Chrome/138.0.0.0 Safari/537.36" version="28.0.7">
  <diagram name="Page-1" id="HijQqm6K5DQT8tWExGjO">
    <mxGraphModel dx="2066" dy="1111" grid="1" gridSize="10" guides="1" tooltips="1" connect="1" arrows="1" fold="1" page="1" pageScale="1" pageWidth="850" pageHeight="1100" math="0" shadow="0">
      <root>
        <mxCell id="0" />
        <mxCell id="1" parent="0" />
        <mxCell id="gK1J7CniOidx2gVJGBRz-14" value="&lt;b&gt;Entity&lt;/b&gt;" style="swimlane;childLayout=stackLayout;horizontal=1;startSize=50;horizontalStack=0;rounded=1;fontSize=14;fontStyle=0;strokeWidth=2;resizeParent=0;resizeLast=1;shadow=0;dashed=0;align=center;arcSize=4;whiteSpace=wrap;html=1;" vertex="1" parent="1">
          <mxGeometry x="545" y="945" width="135" height="125" as="geometry" />
        </mxCell>
        <mxCell id="gK1J7CniOidx2gVJGBRz-15" value="+Attribute1&#xa;+Attribute2&#xa;+Attribute3" style="align=left;strokeColor=none;fillColor=none;spacingLeft=4;spacingRight=4;fontSize=12;verticalAlign=top;resizable=0;rotatable=0;part=1;html=1;whiteSpace=wrap;" vertex="1" parent="gK1J7CniOidx2gVJGBRz-14">
          <mxGeometry y="50" width="135" height="75" as="geometry" />
        </mxCell>
        <mxCell id="gK1J7CniOidx2gVJGBRz-16" value="Main menu World" style="shape=umlFrame;whiteSpace=wrap;html=1;pointerEvents=0;width=80;height=40;" vertex="1" parent="1">
          <mxGeometry x="140" y="400" width="430" height="490" as="geometry" />
        </mxCell>
        <mxCell id="gK1J7CniOidx2gVJGBRz-21" value="&lt;div style=&quot;color: rgb(204, 204, 204); background-color: rgb(31, 31, 31); font-family: Consolas, &amp;quot;Courier New&amp;quot;, monospace; font-weight: normal; font-size: 14px; line-height: 19px; white-space: pre;&quot;&gt;&lt;div style=&quot;line-height: 19px;&quot;&gt;&lt;span style=&quot;color: #4ec9b0;&quot;&gt;MainMenuUIController&lt;/span&gt; : &lt;span style=&quot;color: #4ec9b0;&quot;&gt;MonoBehaviour&lt;/span&gt;&lt;/div&gt;&lt;/div&gt;" style="swimlane;fontStyle=1;align=center;verticalAlign=top;childLayout=stackLayout;horizontal=1;startSize=26;horizontalStack=0;resizeParent=1;resizeParentMax=0;resizeLast=0;collapsible=1;marginBottom=0;whiteSpace=wrap;html=1;" vertex="1" parent="1">
          <mxGeometry x="170" y="470" width="330" height="34" as="geometry" />
        </mxCell>
        <mxCell id="gK1J7CniOidx2gVJGBRz-23" value="" style="line;strokeWidth=1;fillColor=none;align=left;verticalAlign=middle;spacingTop=-1;spacingLeft=3;spacingRight=3;rotatable=0;labelPosition=right;points=[];portConstraint=eastwest;strokeColor=inherit;" vertex="1" parent="gK1J7CniOidx2gVJGBRz-21">
          <mxGeometry y="26" width="330" height="8" as="geometry" />
        </mxCell>
        <mxCell id="gK1J7CniOidx2gVJGBRz-36" value="" style="endArrow=classic;html=1;rounded=0;exitX=0.214;exitY=0.917;exitDx=0;exitDy=0;entryX=0.25;entryY=0;entryDx=0;entryDy=0;exitPerimeter=0;" edge="1" parent="1" source="gK1J7CniOidx2gVJGBRz-23" target="gK1J7CniOidx2gVJGBRz-80">
          <mxGeometry width="50" height="50" relative="1" as="geometry">
            <mxPoint x="400" y="590" as="sourcePoint" />
            <mxPoint x="270" y="620" as="targetPoint" />
          </mxGeometry>
        </mxCell>
        <mxCell id="gK1J7CniOidx2gVJGBRz-38" value="Attempt to start &lt;br&gt;a game mode" style="edgeLabel;html=1;align=center;verticalAlign=middle;resizable=0;points=[];" vertex="1" connectable="0" parent="gK1J7CniOidx2gVJGBRz-36">
          <mxGeometry x="-0.0067" relative="1" as="geometry">
            <mxPoint as="offset" />
          </mxGeometry>
        </mxCell>
        <mxCell id="gK1J7CniOidx2gVJGBRz-54" value="Join Game" style="rounded=1;whiteSpace=wrap;html=1;verticalAlign=top;fontStyle=1;startSize=26;horizontal=1;" vertex="1" parent="1">
          <mxGeometry x="630" y="700" width="120" height="60" as="geometry" />
        </mxCell>
        <mxCell id="gK1J7CniOidx2gVJGBRz-58" value="Host Game" style="rounded=1;whiteSpace=wrap;html=1;verticalAlign=top;fontStyle=1;startSize=26;horizontal=1;" vertex="1" parent="1">
          <mxGeometry x="615" y="570" width="120" height="60" as="geometry" />
        </mxCell>
        <mxCell id="gK1J7CniOidx2gVJGBRz-60" value="Client World&lt;br&gt;Instance&lt;br&gt;&lt;div&gt;&lt;br&gt;&lt;/div&gt;" style="shape=umlFrame;whiteSpace=wrap;html=1;pointerEvents=0;width=80;height=40;" vertex="1" parent="1">
          <mxGeometry x="830" y="440" width="430" height="340" as="geometry" />
        </mxCell>
        <mxCell id="gK1J7CniOidx2gVJGBRz-61" value="&lt;div&gt;Server World&lt;/div&gt;" style="shape=umlFrame;whiteSpace=wrap;html=1;pointerEvents=0;width=80;height=40;" vertex="1" parent="1">
          <mxGeometry x="830" y="50" width="430" height="340" as="geometry" />
        </mxCell>
        <mxCell id="gK1J7CniOidx2gVJGBRz-62" style="edgeStyle=orthogonalEdgeStyle;rounded=0;orthogonalLoop=1;jettySize=auto;html=1;entryX=0.002;entryY=0.4;entryDx=0;entryDy=0;entryPerimeter=0;" edge="1" parent="1" source="gK1J7CniOidx2gVJGBRz-58" target="gK1J7CniOidx2gVJGBRz-61">
          <mxGeometry relative="1" as="geometry" />
        </mxCell>
        <mxCell id="gK1J7CniOidx2gVJGBRz-63" value="Initiate" style="edgeLabel;html=1;align=center;verticalAlign=middle;resizable=0;points=[];" vertex="1" connectable="0" parent="gK1J7CniOidx2gVJGBRz-62">
          <mxGeometry x="0.0572" y="5" relative="1" as="geometry">
            <mxPoint x="1" y="1" as="offset" />
          </mxGeometry>
        </mxCell>
        <mxCell id="gK1J7CniOidx2gVJGBRz-64" style="edgeStyle=orthogonalEdgeStyle;rounded=0;orthogonalLoop=1;jettySize=auto;html=1;entryX=-0.003;entryY=0.463;entryDx=0;entryDy=0;entryPerimeter=0;" edge="1" parent="1" source="gK1J7CniOidx2gVJGBRz-58" target="gK1J7CniOidx2gVJGBRz-60">
          <mxGeometry relative="1" as="geometry" />
        </mxCell>
        <mxCell id="gK1J7CniOidx2gVJGBRz-65" style="edgeStyle=orthogonalEdgeStyle;rounded=0;orthogonalLoop=1;jettySize=auto;html=1;entryX=0.008;entryY=0.675;entryDx=0;entryDy=0;entryPerimeter=0;" edge="1" parent="1" source="gK1J7CniOidx2gVJGBRz-54" target="gK1J7CniOidx2gVJGBRz-60">
          <mxGeometry relative="1" as="geometry" />
        </mxCell>
        <mxCell id="gK1J7CniOidx2gVJGBRz-66" value="&lt;div style=&quot;color: rgb(204, 204, 204); background-color: rgb(31, 31, 31); font-family: Consolas, &amp;quot;Courier New&amp;quot;, monospace; font-weight: normal; font-size: 14px; line-height: 19px; white-space: pre;&quot;&gt;&lt;br&gt;&lt;/div&gt;" style="text;whiteSpace=wrap;html=1;" vertex="1" parent="1">
          <mxGeometry x="940" y="540" width="330" height="40" as="geometry" />
        </mxCell>
        <mxCell id="gK1J7CniOidx2gVJGBRz-67" value="&lt;div style=&quot;color: rgb(204, 204, 204); background-color: rgb(31, 31, 31); font-family: Consolas, &amp;quot;Courier New&amp;quot;, monospace; font-weight: normal; font-size: 14px; line-height: 19px; white-space: pre;&quot;&gt;&lt;div style=&quot;line-height: 19px;&quot;&gt;&lt;span style=&quot;text-align: left; color: rgb(78, 201, 176);&quot;&gt;SystemClientConnectionMonitor&lt;/span&gt;&lt;span style=&quot;color: rgb(204, 204, 204); text-align: left;&quot;&gt; : &lt;/span&gt;&lt;span style=&quot;text-align: left; color: rgb(78, 201, 176);&quot;&gt;ISystem&lt;/span&gt;&lt;/div&gt;&lt;/div&gt;" style="swimlane;fontStyle=1;align=center;verticalAlign=top;childLayout=stackLayout;horizontal=1;startSize=26;horizontalStack=0;resizeParent=1;resizeParentMax=0;resizeLast=0;collapsible=1;marginBottom=0;whiteSpace=wrap;html=1;" vertex="1" parent="1">
          <mxGeometry x="900" y="504" width="330" height="78" as="geometry" />
        </mxCell>
        <mxCell id="gK1J7CniOidx2gVJGBRz-73" value="&lt;div style=&quot;color: rgb(204, 204, 204); background-color: rgb(31, 31, 31); font-family: Consolas, &amp;quot;Courier New&amp;quot;, monospace; font-size: 14px; line-height: 19px; white-space: pre;&quot;&gt;&lt;span style=&quot;color: #4ec9b0;&quot;&gt;ClientWorldTag&lt;/span&gt;&lt;/div&gt;" style="text;strokeColor=none;fillColor=none;align=left;verticalAlign=top;spacingLeft=4;spacingRight=4;overflow=hidden;rotatable=0;points=[[0,0.5],[1,0.5]];portConstraint=eastwest;whiteSpace=wrap;html=1;" vertex="1" parent="gK1J7CniOidx2gVJGBRz-67">
          <mxGeometry y="26" width="330" height="26" as="geometry" />
        </mxCell>
        <mxCell id="gK1J7CniOidx2gVJGBRz-71" value="+ field: type" style="text;strokeColor=none;fillColor=none;align=left;verticalAlign=top;spacingLeft=4;spacingRight=4;overflow=hidden;rotatable=0;points=[[0,0.5],[1,0.5]];portConstraint=eastwest;whiteSpace=wrap;html=1;" vertex="1" parent="gK1J7CniOidx2gVJGBRz-67">
          <mxGeometry y="52" width="330" height="26" as="geometry" />
        </mxCell>
        <mxCell id="gK1J7CniOidx2gVJGBRz-84" style="edgeStyle=orthogonalEdgeStyle;rounded=0;orthogonalLoop=1;jettySize=auto;html=1;entryX=0;entryY=0.5;entryDx=0;entryDy=0;" edge="1" parent="1" source="gK1J7CniOidx2gVJGBRz-80" target="gK1J7CniOidx2gVJGBRz-54">
          <mxGeometry relative="1" as="geometry" />
        </mxCell>
        <mxCell id="gK1J7CniOidx2gVJGBRz-80" value="" style="rounded=1;absoluteArcSize=1;html=1;arcSize=10;" vertex="1" parent="1">
          <mxGeometry x="170" y="610" width="340" height="260" as="geometry" />
        </mxCell>
        <mxCell id="gK1J7CniOidx2gVJGBRz-81" value="&lt;span style=&quot;font-family: Consolas, &amp;quot;Courier New&amp;quot;, monospace; font-size: 14px; white-space: pre; background-color: rgb(31, 31, 31); color: rgb(78, 201, 176);&quot;&gt;InitWorld&lt;/span&gt;&lt;span style=&quot;color: rgb(204, 204, 204); font-family: Consolas, &amp;quot;Courier New&amp;quot;, monospace; font-size: 14px; white-space: pre; background-color: rgb(31, 31, 31);&quot;&gt; : &lt;/span&gt;&lt;span style=&quot;font-family: Consolas, &amp;quot;Courier New&amp;quot;, monospace; font-size: 14px; white-space: pre; background-color: rgb(31, 31, 31); color: rgb(78, 201, 176);&quot;&gt;MonoBehaviour&lt;/span&gt;" style="html=1;shape=mxgraph.er.anchor;whiteSpace=wrap;" vertex="1" parent="gK1J7CniOidx2gVJGBRz-80">
          <mxGeometry x="77.5" y="-105.625" width="155" height="260" as="geometry" />
        </mxCell>
        <mxCell id="gK1J7CniOidx2gVJGBRz-4" value="&lt;div style=&quot;color: rgb(204, 204, 204); background-color: rgb(31, 31, 31); font-family: Consolas, &amp;quot;Courier New&amp;quot;, monospace; font-size: 14px; line-height: 19px; white-space: pre;&quot;&gt;&lt;span style=&quot;color: rgb(78, 201, 176);&quot;&gt;ConnectionResult: enum&lt;/span&gt;&lt;/div&gt;&lt;hr size=&quot;1&quot; style=&quot;border-style:solid;&quot;&gt;&lt;p style=&quot;margin:0px;margin-left:8px;&quot;&gt;+&amp;nbsp;&lt;span style=&quot;font-family: Consolas, &amp;quot;Courier New&amp;quot;, monospace; font-size: 14px; white-space: pre; color: rgb(79, 193, 255);&quot;&gt;Success&lt;/span&gt;&lt;/p&gt;&lt;p style=&quot;margin:0px;margin-left:8px;&quot;&gt;+&amp;nbsp;&lt;span style=&quot;color: rgb(79, 193, 255); font-family: Consolas, &amp;quot;Courier New&amp;quot;, monospace; font-size: 14px; white-space: pre; background-color: transparent;&quot;&gt;Failure&lt;/span&gt;&lt;/p&gt;" style="align=left;overflow=fill;html=1;dropTarget=0;whiteSpace=wrap;" vertex="1" parent="gK1J7CniOidx2gVJGBRz-80">
          <mxGeometry x="10" y="60" width="220" height="90" as="geometry" />
        </mxCell>
        <mxCell id="gK1J7CniOidx2gVJGBRz-5" value="" style="shape=component;jettyWidth=8;jettyHeight=4;" vertex="1" parent="gK1J7CniOidx2gVJGBRz-4">
          <mxGeometry x="1" width="20" height="20" relative="1" as="geometry">
            <mxPoint x="-24" y="4" as="offset" />
          </mxGeometry>
        </mxCell>
        <mxCell id="gK1J7CniOidx2gVJGBRz-87" value="&lt;div style=&quot;color: rgb(204, 204, 204); background-color: rgb(31, 31, 31); font-family: Consolas, &amp;quot;Courier New&amp;quot;, monospace; font-size: 14px; line-height: 19px; white-space: pre;&quot;&gt;&lt;div style=&quot;line-height: 19px;&quot;&gt;&lt;span style=&quot;color: rgb(78, 201, 176);&quot;&gt;ClientWorldTag&lt;/span&gt; : &lt;span style=&quot;color: rgb(78, 201, 176);&quot;&gt;IComponentData&lt;/span&gt;&lt;/div&gt;&lt;/div&gt;&lt;hr size=&quot;1&quot; style=&quot;border-style:solid;&quot;&gt;&lt;p style=&quot;margin:0px;margin-left:8px;&quot;&gt;&lt;br&gt;&lt;/p&gt;&lt;p style=&quot;margin:0px;margin-left:8px;&quot;&gt;&lt;br&gt;&lt;/p&gt;" style="align=left;overflow=fill;html=1;dropTarget=0;whiteSpace=wrap;" vertex="1" parent="gK1J7CniOidx2gVJGBRz-80">
          <mxGeometry x="10" y="160" width="300" height="30" as="geometry" />
        </mxCell>
        <mxCell id="gK1J7CniOidx2gVJGBRz-88" value="" style="shape=component;jettyWidth=8;jettyHeight=4;" vertex="1" parent="gK1J7CniOidx2gVJGBRz-87">
          <mxGeometry x="1" width="20" height="20" relative="1" as="geometry">
            <mxPoint x="-24" y="4" as="offset" />
          </mxGeometry>
        </mxCell>
        <mxCell id="gK1J7CniOidx2gVJGBRz-83" style="edgeStyle=orthogonalEdgeStyle;rounded=0;orthogonalLoop=1;jettySize=auto;html=1;entryX=0.036;entryY=0.633;entryDx=0;entryDy=0;entryPerimeter=0;" edge="1" parent="1" source="gK1J7CniOidx2gVJGBRz-80" target="gK1J7CniOidx2gVJGBRz-58">
          <mxGeometry relative="1" as="geometry" />
        </mxCell>
      </root>
    </mxGraphModel>
  </diagram>
</mxfile>
